<svg xmlns="http://www.w3.org/2000/svg" viewBox="0 0 220 140" width="220" height="140">
<rect id="__bg" x="0" y="0" width="220" height="140" fill="#fffaf5" />
  <rect id="night-sky" fill="#0f172a" x="0" y="0" width="220" height="88" />
  <rect id="ground" fill="#0f766e" x="0" y="88" width="220" height="52" />
  <polygon id="far-hill" fill="#14532d" points="0,88 42,50 88,88" />
  <polygon id="mid-hill" fill="#166534" points="46,88 104,42 166,88" />
  <circle id="moon" fill="#fef3c7" cx="184" cy="24" r="11" />
  <circle id="star-1" fill="#fde68a" cx="28" cy="20" r="2" />
  <circle id="star-3" fill="#fde68a" cx="130" cy="22" r="2.2" />
  <circle id="star-4" fill="#fde68a" cx="204" cy="45" r="1.8" />
  <polygon id="tent-body" fill="#f97316" stroke="#222" stroke-width="1" points="46,96 92,48 138,96" />
  <polygon id="tent-side" fill="#ea580c" stroke="#222" stroke-width="1" points="92,48 138,96 112,96" />
  <polygon id="tent-flap" fill="#7c2d12" stroke="#222" stroke-width="1" points="82,96 96,66 110,96" />
  <line id="tent-line-left" stroke="#f8fafc" stroke-width="1" x1="54" y1="92" x2="30" y2="110" />
  <line id="tent-line-right" stroke="#f8fafc" stroke-width="1" x1="130" y1="92" x2="154" y2="110" />
  <rect id="tree-left-trunk" fill="#854d0e" x="20" y="74" width="8" height="34" />
  <polygon id="tree-left-crown" fill="#15803d" points="24,42 8,80 40,80" />
  <rect id="tree-right-trunk" fill="#854d0e" x="178" y="72" width="8" height="36" />
  <polygon id="tree-right-crown" fill="#15803d" points="182,40 164,82 176,76 170,94 198,92 190,76 202,82" />
  <line id="log-left" stroke="#92400e" stroke-width="5" x1="150" y1="112" x2="176" y2="122" />
  <line id="log-right" stroke="#92400e" stroke-width="5" x1="176" y1="112" x2="150" y2="122" />
  <polygon id="flame-back" fill="#f97316" points="163,110 152,88 172,101 181,86 180,114" />
  <polygon id="flame-front" fill="#fde047" points="166,111 160,96 170,104 175,96 174,114" />
  <ellipse id="smoke-1" fill="#94a3b8" opacity="0.65" cx="160" cy="80" rx="6" ry="3" />
  <ellipse id="smoke-2" fill="#94a3b8" opacity="0.5" cx="174" cy="72" rx="7" ry="4" />
  <path id="smoke-curl" fill="none" stroke="#cbd5e1" stroke-width="1.4" d="M168 80 C154 72 178 64 164 56 C154 50 174 46 166 38" />
  <rect id="backpack" fill="#2563eb" stroke="#111827" stroke-width="1" x="36" y="104" width="14" height="18" rx="3" ry="3" />
  <polyline id="path" fill="none" stroke="#a3e635" stroke-width="5" points="96,100 108,114 118,140" />
  <path id="trail-curve" fill="none" stroke="#bef264" stroke-width="2" d="M86 104 C100 112 98 126 112 140" />
  <path id="skin-04-aurora-wide-a" fill="none" stroke="#22d3ee" stroke-width="10" opacity="0.48" d="M4 24 C42 0 70 50 108 24 S170 4 216 30" />
  <path id="skin-04-aurora-wide-b" fill="none" stroke="#a7f3d0" stroke-width="8" opacity="0.42" d="M0 48 C54 16 92 68 138 38 S182 24 220 54" />
  <path id="identity-04-aurora-a" fill="none" stroke="#22d3ee" stroke-width="5" opacity="0.42" d="M10 24 C38 6 62 42 90 22 S144 4 196 26" />
  <path id="identity-04-aurora-b" fill="none" stroke="#a7f3d0" stroke-width="4" opacity="0.4" d="M12 38 C48 18 78 52 114 34 S166 22 208 42" />
  <circle id="variant-04-dot" fill="#f97316" opacity="0.72" cx="30" cy="26" r="2.6" />
  <line id="variant-04-rule" stroke="#f97316" stroke-width="1.2" opacity="0.58" x1="36" y1="29" x2="52" y2="32" />
  <rect id="variant-04-chip-01" fill="#22c55e" opacity="0.68" x="12" y="5" width="8" height="3" rx="1" />
  <rect id="variant-04-chip-02" fill="#14b8a6" opacity="0.68" x="43" y="6" width="9" height="4" rx="1" />
  <rect id="variant-04-chip-03" fill="#06b6d4" opacity="0.68" x="80" y="4" width="7" height="3" rx="1" />
  <rect id="variant-04-chip-04" fill="#3b82f6" opacity="0.68" x="111" y="5" width="8" height="4" rx="1" />
  <rect id="variant-04-chip-05" fill="#6366f1" opacity="0.68" x="148" y="6" width="9" height="3" rx="1" />
  <rect id="variant-04-chip-06" fill="#8b5cf6" opacity="0.68" x="179" y="4" width="7" height="4" rx="1" />
  <rect id="variant-04-chip-07" fill="#d946ef" opacity="0.68" x="12" y="140" width="8" height="3" rx="1" />
  <rect id="variant-04-chip-08" fill="#ec4899" opacity="0.68" x="43" y="139" width="9" height="4" rx="1" />
  <rect id="variant-04-chip-09" fill="#ef4444" opacity="0.68" x="80" y="141" width="7" height="3" rx="1" />
  <rect id="variant-04-chip-10" fill="#f97316" opacity="0.68" x="111" y="140" width="8" height="4" rx="1" />
  <rect id="variant-04-chip-11" fill="#f59e0b" opacity="0.68" x="148" y="139" width="9" height="3" rx="1" />
  <rect id="variant-04-chip-12" fill="#84cc16" opacity="0.68" x="179" y="141" width="7" height="4" rx="1" />
  <circle id="variant-04-pin-01" fill="#6366f1" opacity="0.66" cx="12" cy="26" r="1.8" />
  <circle id="variant-04-pin-02" fill="#8b5cf6" opacity="0.66" cx="209" cy="40" r="2.05" />
  <circle id="variant-04-pin-03" fill="#d946ef" opacity="0.66" cx="22" cy="54" r="2.3" />
  <circle id="variant-04-pin-04" fill="#ec4899" opacity="0.66" cx="195" cy="68" r="2.55" />
  <circle id="variant-04-pin-05" fill="#ef4444" opacity="0.66" cx="8" cy="82" r="1.8" />
  <circle id="variant-04-pin-06" fill="#f97316" opacity="0.66" cx="205" cy="96" r="2.05" />
  <circle id="variant-04-pin-07" fill="#f59e0b" opacity="0.66" cx="18" cy="110" r="2.3" />
  <circle id="variant-04-pin-08" fill="#84cc16" opacity="0.66" cx="191" cy="124" r="2.55" />
  <circle id="star-2" fill="#fde68a" cx="72" cy="16" r="1.8" />
</svg>
