<svg xmlns="http://www.w3.org/2000/svg" viewBox="0 0 1600 1000">
  <defs>
    <linearGradient id="sky05" x1="0" y1="0" x2="0" y2="1">
      <stop offset="0" stop-color="#040a1e" />
      <stop offset="0.5" stop-color="#0a1838" />
      <stop offset="1" stop-color="#142a4a" />
    </linearGradient>
    <linearGradient id="aur05a" x1="0" y1="0" x2="0" y2="1">
      <stop offset="0" stop-color="#5affc8" stop-opacity="0" />
      <stop offset="0.5" stop-color="#3affb0" stop-opacity="0.8" />
      <stop offset="1" stop-color="#0affd0" stop-opacity="0" />
    </linearGradient>
    <linearGradient id="aur05b" x1="0" y1="0" x2="0" y2="1">
      <stop offset="0" stop-color="#b06aff" stop-opacity="0" />
      <stop offset="0.5" stop-color="#7a5aff" stop-opacity="0.7" />
      <stop offset="1" stop-color="#4affe0" stop-opacity="0" />
    </linearGradient>
    <linearGradient id="aur05c" x1="0" y1="0" x2="0" y2="1">
      <stop offset="0" stop-color="#5affc8" stop-opacity="0" />
      <stop offset="0.5" stop-color="#9affc0" stop-opacity="0.6" />
      <stop offset="1" stop-color="#3a8aff" stop-opacity="0" />
    </linearGradient>
    <linearGradient id="snow05" x1="0" y1="0" x2="0" y2="1">
      <stop offset="0" stop-color="#cfe0f0" /><stop offset="1" stop-color="#9fb6d4" />
    </linearGradient>
    <linearGradient id="lake05" x1="0" y1="0" x2="0" y2="1">
      <stop offset="0" stop-color="#1a3a5a" /><stop offset="1" stop-color="#0a1c34" />
    </linearGradient>
    <filter id="aurblur05" x="-50%" y="-50%" width="200%" height="200%"><feGaussianBlur stdDeviation="18" /></filter>
    <radialGradient id="moon05" cx="0.5" cy="0.5" r="0.5">
      <stop offset="0" stop-color="#fffef0" /><stop offset="0.5" stop-color="#e0eaff" stop-opacity="0.6" /><stop offset="1" stop-color="#e0eaff" stop-opacity="0" />
    </radialGradient>
  </defs>

  <rect width="1600" height="1000" fill="url(#sky05)" id="download-sv_025-rect-001" />


  <g fill="#ffffff">
    <circle cx="187" cy="80" r="1.6" id="download-sv_025-circle-001" /><circle cx="300" cy="50" r="1.2" id="download-sv_025-circle-002" /><circle cx="500" cy="100" r="1.4" id="download-sv_025-circle-003" /><circle cx="700" cy="40" r="1.6" id="download-sv_025-circle-004" />
    <circle cx="900" cy="90" r="1.2" id="download-sv_025-circle-005" /><circle cx="1100" cy="60" r="1.5" id="download-sv_025-circle-006" /><circle cx="1300" cy="110" r="1.3" id="download-sv_025-circle-007" /><circle cx="1500" cy="50" r="1.6" id="download-sv_025-circle-008" />
    <circle cx="200" cy="200" r="1" id="download-sv_025-circle-009" /><circle cx="420" cy="170" r="1.3" id="download-sv_025-circle-010" /><circle cx="640" cy="210" r="1" id="download-sv_025-circle-011" /><circle cx="860" cy="160" r="1.4" id="download-sv_025-circle-012" />
    <circle cx="1080" cy="210" r="1" id="download-sv_025-circle-013" /><circle cx="1280" cy="180" r="1.3" id="download-sv_025-circle-014" /><circle cx="1480" cy="220" r="1.1" id="download-sv_025-circle-015" /><circle cx="60" cy="160" r="1.2" id="download-sv_025-circle-016" />
    <circle cx="380" cy="300" r="0.9" id="download-sv_025-circle-017" /><circle cx="760" cy="320" r="1.1" id="download-sv_025-circle-018" /><circle cx="1180" cy="300" r="0.9" id="download-sv_025-circle-019" />
  </g>


  <g filter="url(#aurblur05)">
    <path d="M-50 120 Q300 60 560 200 Q820 340 1100 160 Q1360 20 1680 180 L1680 360 Q1360 220 1100 380 Q820 540 560 400 Q300 280 -50 360 Z" fill="url(#aur05a)" id="download-sv_025-path-001" />
    <path d="M-50 260 Q360 360 640 220 Q920 80 1240 280 Q1480 420 1680 300 L1680 460 Q1480 580 1240 440 Q920 260 640 400 Q360 540 -50 440 Z" fill="url(#aur05b)" opacity="0.36" id="download-sv_025-path-002" />
    <path d="M-50 180 Q400 300 720 140 Q1040 -10 1400 200 L1680 360 L1680 240 Q1400 60 1040 220 Q720 380 400 240 Q200 160 -50 280 Z" fill="url(#aur05c)" opacity="0.7" id="download-sv_025-path-003" />
  </g>

  <g stroke-linecap="round" opacity="0.5">
    <line x1="300" y1="120" x2="300" y2="360" stroke="#6affc0" stroke-width="11" id="download-sv_025-line-001" />
    <line x1="560" y1="180" x2="560" y2="420" stroke="#8affc8" stroke-width="5" id="download-sv_025-line-002" />
    <line x1="900" y1="140" x2="900" y2="400" stroke="#7a8aff" stroke-width="6" id="download-sv_025-line-003" />
    <line x1="1240" y1="200" x2="1240" y2="440" stroke="#6affc0" stroke-width="5" id="download-sv_025-line-004" />
  </g>


  <circle cx="1380" cy="180" r="120" fill="url(#moon05)" id="download-sv_025-circle-020" />
  <circle cx="1380" cy="180" r="40" fill="#06b6d4" id="download-sv_025-circle-021" />


  <path d="M0 600 L240 480 L480 580 L720 460 L980 580 L1240 470 L1600 580 L1600 700 L0 700 Z" fill="#1a2c4a" id="download-sv_025-path-004" />

  <g fill="#bcd0ea" opacity="0.8">
    <polygon points="240,480 200,540 290,540" id="download-sv_025-polygon-001" /><polygon points="720,460 680,520 770,520" id="download-sv_025-polygon-002" /><polygon points="1240,470 1200,530 1290,530" id="download-sv_025-polygon-003" />
  </g>


  <path d="M0 660 Q400 620 800 660 Q1200 700 1600 660 L1600 1000 L0 1000 Z" fill="url(#snow05)" id="download-sv_025-path-005" />


  <ellipse cx="820" cy="850" rx="520" ry="100" fill="url(#lake05)" id="download-sv_025-ellipse-001" />

  <g opacity="0.4" filter="url(#aurblur05)">
    <ellipse cx="700" cy="840" rx="280" ry="40" fill="#3affb0" id="download-sv_025-ellipse-002" />
    <ellipse cx="1000" cy="860" rx="240" ry="34" fill="#7a5aff" id="download-sv_025-ellipse-003" />
  </g>
  <g stroke="#cfe0f0" stroke-width="1" opacity="0.3">
    <line x1="500" y1="840" x2="1140" y2="840" id="download-sv_025-line-005" /><line x1="560" y1="870" x2="1080" y2="870" id="download-sv_025-line-006" />
  </g>


  <g fill="#0c2236">
    <g transform="translate(160 560)"><polygon points="0,140 -38,140 0,40 38,140" id="download-sv_025-polygon-004" /><polygon points="0,90 -30,90 0,10 30,90" id="download-sv_025-polygon-005" /><polygon points="0,50 -22,50 0,-10 22,50" id="download-sv_025-polygon-006" /><rect x="-5" y="140" width="10" height="20" id="download-sv_025-rect-002" /></g>
    <g transform="translate(280 600)"><polygon points="0,120 -32,120 0,34 32,120" id="download-sv_025-polygon-007" /><polygon points="0,76 -26,76 0,8 26,76" id="download-sv_025-polygon-008" /><polygon points="0,42 -18,42 0,-8 18,42" id="download-sv_025-polygon-009" /><rect x="-4" y="120" width="8" height="18" id="download-sv_025-rect-003" /></g>
    <g transform="translate(1380 580)"><polygon points="0,130 -36,130 0,38 36,130" id="download-sv_025-polygon-010" /><polygon points="0,84 -28,84 0,8 28,84" id="download-sv_025-polygon-011" /><polygon points="0,46 -20,46 0,-10 20,46" id="download-sv_025-polygon-012" /><rect x="-5" y="130" width="10" height="18" id="download-sv_025-rect-004" /></g>
    <g transform="translate(1480 620)"><polygon points="0,110 -30,110 0,30 30,110" id="download-sv_025-polygon-013" /><polygon points="0,70 -24,70 0,6 24,70" id="download-sv_025-polygon-014" /><rect x="-4" y="110" width="8" height="16" id="download-sv_025-rect-005" /></g>
  </g>

  <g fill="#dfe9f6" opacity="0.7">
    <polygon points="160,600 140,610 180,610" id="download-sv_025-polygon-015" /><polygon points="1380,618 1360,628 1400,628" id="download-sv_025-polygon-016" />
  </g>


  <g transform="translate(420 700)">
    <rect x="0" y="0" width="120" height="80" fill="#3a2818" id="download-sv_025-rect-006" />
    <polygon points="-12,0 60,-46 132,0" fill="#dfe9f6" id="download-sv_025-polygon-017" />
    <polygon points="-8,2 60,-40 128,2" fill="#5a3a22" id="download-sv_025-polygon-018" />
    <rect x="20" y="28" width="26" height="30" fill="#ffd27a" id="download-sv_025-rect-007" />
    <rect x="74" y="28" width="26" height="30" fill="#ffd27a" id="download-sv_025-rect-008" />
    <rect x="50" y="58" width="20" height="22" fill="#2a1a0e" id="download-sv_025-rect-009" />
    <rect x="86" y="-44" width="14" height="28" fill="#4a3020" id="download-sv_025-rect-010" />
  </g>

  <path d="M513 656 Q525 620 510 590 Q498 560 515 530" stroke="#cfd8e8" stroke-width="6" fill="none" opacity="0.4" stroke-linecap="round" id="download-sv_025-path-006" />


  <g fill="#ffffff" opacity="0.8">
    <circle cx="200" cy="400" r="2.5" id="download-sv_025-circle-022" /><circle cx="500" cy="500" r="2" id="download-sv_025-circle-023" /><circle cx="800" cy="420" r="2.5" id="download-sv_025-circle-024" /><circle cx="1100" cy="520" r="2" id="download-sv_025-circle-025" />
    <circle cx="1400" cy="440" r="2.5" id="download-sv_025-circle-026" /><circle cx="350" cy="640" r="2" id="download-sv_025-circle-027" /><circle cx="950" cy="640" r="2.5" id="download-sv_025-circle-028" /><circle cx="1250" cy="640" r="2" id="download-sv_025-circle-029" />
    <circle cx="650" cy="560" r="1.8" id="download-sv_025-circle-030" /><circle cx="1050" cy="480" r="1.8" id="download-sv_025-circle-031" />
  </g>
<circle id="sv_025-extra-survey-marker" cx="1120" cy="358" r="32" fill="#06b6d4" opacity="0.82" stroke="#111827" stroke-width="5" /></svg>
