<svg xmlns="http://www.w3.org/2000/svg" viewBox="0 0 1600 1000">
  <defs>
    <linearGradient id="sky20" x1="0" y1="0" x2="0" y2="1">
      <stop offset="0" stop-color="#5aa8d8" />
      <stop offset="0.45" stop-color="#9fcfe6" />
      <stop offset="0.75" stop-color="#e6d8e8" />
      <stop offset="1" stop-color="#fbe6d0" />
    </linearGradient>
    <radialGradient id="sun20" cx="0.5" cy="0.5" r="0.5">
      <stop offset="0" stop-color="#fffae8" /><stop offset="0.5" stop-color="#ffe6b0" stop-opacity="0.6" /><stop offset="1" stop-color="#ffe6b0" stop-opacity="0" />
    </radialGradient>
    <linearGradient id="grass20" x1="0" y1="0" x2="0" y2="1">
      <stop offset="0" stop-color="#7ac85a" /><stop offset="1" stop-color="#4a9a3a" />
    </linearGradient>
    <linearGradient id="rock20" x1="0" y1="0" x2="0" y2="1">
      <stop offset="0" stop-color="#8a6a52" /><stop offset="0.6" stop-color="#5a4232" /><stop offset="1" stop-color="#3a2a1e" />
    </linearGradient>
    <linearGradient id="fall20" x1="0" y1="0" x2="0" y2="1">
      <stop offset="0" stop-color="#dffaff" /><stop offset="1" stop-color="#aee0f0" stop-opacity="0.3" />
    </linearGradient>
    <linearGradient id="castle20" x1="0" y1="0" x2="0" y2="1">
      <stop offset="0" stop-color="#e8e0e8" /><stop offset="1" stop-color="#b8acc0" />
    </linearGradient>
    <filter id="cloud20" x="-50%" y="-50%" width="200%" height="200%"><feGaussianBlur stdDeviation="18" /></filter>
  </defs>

  <rect width="1600" height="1000" fill="url(#sky20)" id="download-sv_040-rect-001" />
  <circle cx="1283" cy="240" r="280" fill="url(#sun20)" id="download-sv_040-circle-001" />
  <circle cx="1240" cy="240" r="60" fill="#fffaf0" id="download-sv_040-circle-002" />


  <g fill="#ffffff" opacity="0.7" filter="url(#cloud20)">
    <ellipse cx="300" cy="220" rx="220" ry="44" id="download-sv_040-ellipse-001" /><ellipse cx="700" cy="160" rx="180" ry="38" id="download-sv_040-ellipse-002" /><ellipse cx="1050" cy="360" rx="200" ry="40" id="download-sv_040-ellipse-003" />
  </g>


  <g opacity="0.6">
    <g transform="translate(260 360) scale(0.5)">
      <path d="M-120 0 Q0 -30 120 0 L80 60 Q0 130 -70 70 Z" fill="url(#rock20)" id="download-sv_040-path-001" />
      <ellipse cx="0" cy="-4" rx="120" ry="22" fill="#5a9a4a" id="download-sv_040-ellipse-004" />
    </g>
    <g transform="translate(1180 480) scale(0.45)">
      <path d="M-120 0 Q0 -30 120 0 L70 70 Q0 130 -80 60 Z" fill="url(#rock20)" id="download-sv_040-path-002" />
      <ellipse cx="0" cy="-4" rx="120" ry="22" fill="#5a9a4a" id="download-sv_040-ellipse-005" />
    </g>
  </g>


  <g fill="#3a4a6a" opacity="0.7">
    <g transform="translate(560 300)"><path d="M0 0 Q-24 -16 -44 -6 Q-30 4 -10 2 Q-30 12 -44 22 Q-24 14 0 4 Q24 14 44 22 Q30 12 10 2 Q30 4 44 -6 Q24 -16 0 0 Z" id="download-sv_040-path-003" /></g>
    <g transform="translate(900 420) scale(0.6)"><path d="M0 0 Q-24 -16 -44 -6 Q-30 4 -10 2 Q-30 12 -44 22 Q-24 14 0 4 Q24 14 44 22 Q30 12 10 2 Q30 4 44 -6 Q24 -16 0 0 Z" id="download-sv_040-path-004" /></g>
  </g>


  <g transform="translate(560 520)">

    <path d="M-300 20 Q-260 -30 -180 -36 Q-60 -50 60 -42 Q200 -36 300 0 L240 120 Q180 240 120 300 Q40 360 -40 300 Q-140 220 -220 140 Q-280 90 -300 20 Z" fill="url(#rock20)" id="download-sv_040-path-005" />

    <g stroke="#3a2a1e" stroke-width="3" opacity="0.5" fill="none">
      <path d="M-260 60 Q-100 100 200 70" id="download-sv_040-path-006" /><path d="M-200 140 Q-40 180 160 150" id="download-sv_040-path-007" /><path d="M-120 220 Q0 250 100 230" id="download-sv_040-path-008" />
    </g>

    <path d="M-300 20 Q-260 -30 -180 -36 Q-60 -50 60 -42 Q200 -36 300 0 Q200 40 60 34 Q-100 40 -300 20 Z" fill="url(#grass20)" id="download-sv_040-path-009" />
    <ellipse cx="-60" cy="-8" rx="240" ry="30" fill="#8ad86a" opacity="0.27" id="download-sv_040-ellipse-006" />


    <g transform="translate(20 -40)">
      <rect x="-90" y="-120" width="180" height="120" fill="url(#castle20)" id="download-sv_040-rect-002" />
      <rect x="-110" y="-180" width="44" height="180" fill="url(#castle20)" id="download-sv_040-rect-003" />
      <rect x="66" y="-180" width="44" height="180" fill="url(#castle20)" id="download-sv_040-rect-004" />
      <rect x="-20" y="-220" width="44" height="220" fill="url(#castle20)" id="download-sv_040-rect-005" />

      <g fill="#cabcd0"><rect x="-110" y="-192" width="12" height="14" id="download-sv_040-rect-006" /><rect x="-90" y="-192" width="12" height="14" id="download-sv_040-rect-007" /><rect x="-78" y="-192" width="12" height="14" id="download-sv_040-rect-008" />
        <rect x="66" y="-192" width="12" height="14" id="download-sv_040-rect-009" /><rect x="86" y="-192" width="12" height="14" id="download-sv_040-rect-010" /><rect x="98" y="-192" width="12" height="14" id="download-sv_040-rect-011" /></g>

      <polygon points="-114,-180 -88,-240 -62,-180" fill="#7a4aa0" id="download-sv_040-polygon-001" />
      <polygon points="62,-180 88,-240 114,-180" fill="#ef4444" id="download-sv_040-polygon-002" />
      <polygon points="-24,-220 2,-290 28,-220" fill="#6a3a90" id="download-sv_040-polygon-003" />

      <line x1="2" y1="-290" x2="2" y2="-320" stroke="#5a3a20" stroke-width="8" id="download-sv_040-line-001" /><polygon points="2,-318 34,-308 2,-298" fill="#e0512a" id="download-sv_040-polygon-004" />

      <g fill="#ffd27a"><rect x="-96" y="-150" width="14" height="24" id="download-sv_040-rect-012" /><rect x="80" y="-150" width="14" height="24" id="download-sv_040-rect-013" /><rect x="-10" y="-190" width="20" height="30" id="download-sv_040-rect-014" />
        <rect x="-60" y="-90" width="20" height="34" id="download-sv_040-rect-015" /><rect x="40" y="-90" width="20" height="34" id="download-sv_040-rect-016" /></g>

      <path d="M-16 0 L-16 -40 a16 16 0 0 1 32 0 L16 0 Z" fill="#3a2a18" id="download-sv_040-path-010" />
    </g>

    <g fill="#3a7a2a"><ellipse cx="-200" cy="-26" rx="26" ry="34" id="download-sv_040-ellipse-007" /><ellipse cx="-160" cy="-18" rx="20" ry="28" id="download-sv_040-ellipse-008" /><ellipse cx="220" cy="-18" rx="24" ry="32" id="download-sv_040-ellipse-009" /></g>
    <g stroke="#4a3420" stroke-width="5"><line x1="-200" y1="6" x2="-200" y2="-20" id="download-sv_040-line-002" /><line x1="220" y1="8" x2="220" y2="-14" id="download-sv_040-line-003" /></g>


    <path d="M-150 30 Q-160 200 -150 360 Q-148 420 -158 460 L-110 460 Q-120 420 -118 360 Q-110 200 -118 30 Z" fill="url(#fall20)" id="download-sv_040-path-011" />
    <g stroke="#ffffff" stroke-width="3" opacity="0.6"><line x1="-145" y1="40" x2="-148" y2="440" id="download-sv_040-line-004" /><line x1="-128" y1="40" x2="-124" y2="440" id="download-sv_040-line-005" /></g>
  </g>


  <g transform="translate(1140 640)">
    <path d="M-200 16 Q-160 -24 -80 -28 Q40 -38 160 -10 L120 90 Q60 180 -20 150 Q-120 110 -180 60 Q-200 40 -200 16 Z" fill="url(#rock20)" id="download-sv_040-path-012" />
    <path d="M-200 16 Q-160 -24 -80 -28 Q40 -38 160 -10 Q60 28 -60 24 Q-140 26 -200 16 Z" fill="url(#grass20)" id="download-sv_040-path-013" />

    <g transform="translate(40 -30)">
      <rect x="-30" y="-40" width="60" height="40" fill="#caa06a" id="download-sv_040-rect-017" />
      <polygon points="-38,-40 0,-72 38,-40" fill="#8a4a2a" id="download-sv_040-polygon-005" />
      <rect x="-10" y="-30" width="20" height="30" fill="#5a3a20" id="download-sv_040-rect-018" />
      <rect x="-26" y="-50" width="10" height="0" id="download-sv_040-rect-019" />
    </g>
    <g fill="#3a7a2a"><ellipse cx="-120" cy="-12" rx="22" ry="28" id="download-sv_040-ellipse-010" /></g>

    <path d="M-30 24 Q-38 160 -30 300 L-2 300 Q-10 160 -2 24 Z" fill="url(#fall20)" id="download-sv_040-path-014" />
  </g>


  <g stroke="#6a4a2a" stroke-width="3" fill="none">
    <path d="M820 510 Q980 600 940 612" id="download-sv_040-path-015" />
    <path d="M820 540 Q980 630 940 642" id="download-sv_040-path-016" />
  </g>
  <g stroke="#6a4a2a" stroke-width="2">
    <line x1="845" y1="522" x2="848" y2="552" id="download-sv_040-line-006" /><line x1="875" y1="540" x2="878" y2="570" id="download-sv_040-line-007" /><line x1="905" y1="566" x2="908" y2="596" id="download-sv_040-line-008" /><line x1="930" y1="600" x2="932" y2="628" id="download-sv_040-line-009" />
  </g>


  <g fill="#ffffff" filter="url(#cloud20)">
    <ellipse cx="500" cy="940" rx="420" ry="70" opacity="0.9" id="download-sv_040-ellipse-011" />
    <ellipse cx="1100" cy="980" rx="480" ry="80" opacity="0.9" id="download-sv_040-ellipse-012" />
    <ellipse cx="820" cy="900" rx="300" ry="56" opacity="0.8" id="download-sv_040-ellipse-013" />
    <ellipse cx="150" cy="900" rx="260" ry="50" opacity="0.8" id="download-sv_040-ellipse-014" />
    <ellipse cx="1500" cy="900" rx="260" ry="50" opacity="0.8" id="download-sv_040-ellipse-015" />
  </g>


  <g transform="translate(420 340)" fill="#2a3650">
    <path d="M0 0 Q40 -30 90 -20 Q70 -6 56 -2 Q90 0 120 18 Q86 22 60 16 Q40 40 10 44 Q24 18 16 12 Q-20 30 -54 28 Q-30 8 -22 0 Q-50 -8 -70 -28 Q-34 -18 -10 -8 Q-6 -22 0 0 Z" id="download-sv_040-path-017" />
    <path d="M56 -2 Q120 -40 150 -30" stroke="#2a3650" stroke-width="5" fill="none" id="download-sv_040-path-018" />
  </g>
<circle id="sv_040-extra-survey-marker" cx="1360" cy="358" r="41" fill="#f8fafc" opacity="0.82" stroke="#111827" stroke-width="5" /></svg>
