<svg xmlns="http://www.w3.org/2000/svg" viewBox="0 0 128 128" width="128" height="128">
<rect id="__bg" x="0" y="0" width="128" height="128" fill="white" />
  <g id="icon" data-source="heroicons/outline/adjustments-horizontal.svg" transform="translate(8, 8) scale(4.6667)" style="color: #3b82f6" fill="none" stroke="currentColor" stroke-width="1.5"><path stroke-linecap="round" stroke-linejoin="round" d="M10.5 6h9.75M10.5 6a1.5 1.5 0 1 1-3 0m3 0a1.5 1.5 0 1 0-3 0M3.75 6H7.5m3 12h9.75m-9.75 0a1.5 1.5 0 0 1-3 0m3 0a1.5 1.5 0 0 0-3 0m-3.75 0H7.5m9-6h3.75m-3.75 0a1.5 1.5 0 0 1-3 0m3 0a1.5 1.5 0 0 0-3 0m-9.75 0h9.75"/></g>
</svg>